solid arriere_porte_acces
   facet normal -1.000000e+000 0.000000e+000 0.000000e+000
      outer loop
         vertex 0.000000e+000 0.000000e+000 1.000000e+001
         vertex 0.000000e+000 8.900001e+002 1.000000e+001
         vertex 0.000000e+000 0.000000e+000 0.000000e+000
      endloop
   endfacet
   facet normal -1.000000e+000 0.000000e+000 0.000000e+000
      outer loop
         vertex 0.000000e+000 0.000000e+000 0.000000e+000
         vertex 0.000000e+000 8.900001e+002 1.000000e+001
         vertex 0.000000e+000 8.900001e+002 0.000000e+000
      endloop
   endfacet
   facet normal 0.000000e+000 -1.000000e+000 0.000000e+000
      outer loop
         vertex 7.500000e+002 0.000000e+000 1.000000e+001
         vertex 0.000000e+000 0.000000e+000 1.000000e+001
         vertex 7.500000e+002 0.000000e+000 0.000000e+000
      endloop
   endfacet
   facet normal 0.000000e+000 -1.000000e+000 0.000000e+000
      outer loop
         vertex 7.500000e+002 0.000000e+000 0.000000e+000
         vertex 0.000000e+000 0.000000e+000 1.000000e+001
         vertex 0.000000e+000 0.000000e+000 0.000000e+000
      endloop
   endfacet
   facet normal 1.000000e+000 0.000000e+000 0.000000e+000
      outer loop
         vertex 7.500000e+002 8.900001e+002 1.000000e+001
         vertex 7.500000e+002 0.000000e+000 1.000000e+001
         vertex 7.500000e+002 8.900001e+002 0.000000e+000
      endloop
   endfacet
   facet normal 1.000000e+000 0.000000e+000 0.000000e+000
      outer loop
         vertex 7.500000e+002 8.900001e+002 0.000000e+000
         vertex 7.500000e+002 0.000000e+000 1.000000e+001
         vertex 7.500000e+002 0.000000e+000 0.000000e+000
      endloop
   endfacet
   facet normal 0.000000e+000 1.000000e+000 0.000000e+000
      outer loop
         vertex 0.000000e+000 8.900001e+002 1.000000e+001
         vertex 7.500000e+002 8.900001e+002 1.000000e+001
         vertex 0.000000e+000 8.900001e+002 0.000000e+000
      endloop
   endfacet
   facet normal 0.000000e+000 1.000000e+000 0.000000e+000
      outer loop
         vertex 0.000000e+000 8.900001e+002 0.000000e+000
         vertex 7.500000e+002 8.900001e+002 1.000000e+001
         vertex 7.500000e+002 8.900001e+002 0.000000e+000
      endloop
   endfacet
   facet normal 0.000000e+000 0.000000e+000 1.000000e+000
      outer loop
         vertex 7.500000e+002 0.000000e+000 1.000000e+001
         vertex 7.500000e+002 8.900001e+002 1.000000e+001
         vertex 0.000000e+000 0.000000e+000 1.000000e+001
      endloop
   endfacet
   facet normal 0.000000e+000 0.000000e+000 1.000000e+000
      outer loop
         vertex 0.000000e+000 0.000000e+000 1.000000e+001
         vertex 7.500000e+002 8.900001e+002 1.000000e+001
         vertex 0.000000e+000 8.900001e+002 1.000000e+001
      endloop
   endfacet
   facet normal 0.000000e+000 0.000000e+000 -1.000000e+000
      outer loop
         vertex 7.500000e+002 8.900001e+002 0.000000e+000
         vertex 7.500000e+002 0.000000e+000 0.000000e+000
         vertex 0.000000e+000 8.900001e+002 0.000000e+000
      endloop
   endfacet
   facet normal 0.000000e+000 0.000000e+000 -1.000000e+000
      outer loop
         vertex 0.000000e+000 8.900001e+002 0.000000e+000
         vertex 7.500000e+002 0.000000e+000 0.000000e+000
         vertex 0.000000e+000 0.000000e+000 0.000000e+000
      endloop
   endfacet
endsolid