solid dessous_marquee
   facet normal 0.000000e+000 -1.060109e-016 1.000000e+000
      outer loop
         vertex 7.300000e+002 1.395860e+001 1.000000e+001
         vertex 7.300000e+002 1.939586e+002 1.000000e+001
         vertex 0.000000e+000 1.395860e+001 1.000000e+001
      endloop
   endfacet
   facet normal 0.000000e+000 -1.060109e-016 1.000000e+000
      outer loop
         vertex 0.000000e+000 1.395860e+001 1.000000e+001
         vertex 7.300000e+002 1.939586e+002 1.000000e+001
         vertex 0.000000e+000 1.939586e+002 1.000000e+001
      endloop
   endfacet
   facet normal 0.000000e+000 -9.396927e-001 -3.420202e-001
      outer loop
         vertex 7.300000e+002 1.759830e+001 6.039793e-018
         vertex 7.300000e+002 1.395860e+001 1.000000e+001
         vertex 0.000000e+000 1.759830e+001 6.039793e-018
      endloop
   endfacet
   facet normal 0.000000e+000 -9.396927e-001 -3.420202e-001
      outer loop
         vertex 0.000000e+000 1.759830e+001 6.039793e-018
         vertex 7.300000e+002 1.395860e+001 1.000000e+001
         vertex 0.000000e+000 1.395860e+001 1.000000e+001
      endloop
   endfacet
   facet normal 0.000000e+000 3.424690e-020 -1.000000e+000
      outer loop
         vertex 7.300000e+002 1.939586e+002 6.039793e-018
         vertex 7.300000e+002 1.759830e+001 0.000000e+000
         vertex 0.000000e+000 1.939586e+002 6.039793e-018
      endloop
   endfacet
   facet normal 0.000000e+000 3.424690e-020 -1.000000e+000
      outer loop
         vertex 0.000000e+000 1.939586e+002 6.039793e-018
         vertex 7.300000e+002 1.759830e+001 0.000000e+000
         vertex 0.000000e+000 1.759830e+001 0.000000e+000
      endloop
   endfacet
   facet normal 0.000000e+000 1.000000e+000 0.000000e+000
      outer loop
         vertex 7.300000e+002 1.939586e+002 1.000000e+001
         vertex 7.300000e+002 1.939586e+002 6.039793e-018
         vertex 0.000000e+000 1.939586e+002 1.000000e+001
      endloop
   endfacet
   facet normal 0.000000e+000 1.000000e+000 0.000000e+000
      outer loop
         vertex 0.000000e+000 1.939586e+002 1.000000e+001
         vertex 7.300000e+002 1.939586e+002 6.039793e-018
         vertex 0.000000e+000 1.939586e+002 6.039793e-018
      endloop
   endfacet
   facet normal 1.000000e+000 0.000000e+000 0.000000e+000
      outer loop
         vertex 7.300000e+002 1.759830e+001 0.000000e+000
         vertex 7.300000e+002 1.939586e+002 6.039793e-018
         vertex 7.300000e+002 1.395860e+001 1.000000e+001
      endloop
   endfacet
   facet normal 1.000000e+000 0.000000e+000 0.000000e+000
      outer loop
         vertex 7.300000e+002 1.395860e+001 1.000000e+001
         vertex 7.300000e+002 1.939586e+002 6.039793e-018
         vertex 7.300000e+002 1.939586e+002 1.000000e+001
      endloop
   endfacet
   facet normal -1.000000e+000 0.000000e+000 0.000000e+000
      outer loop
         vertex 0.000000e+000 1.939586e+002 6.039793e-018
         vertex 0.000000e+000 1.759830e+001 0.000000e+000
         vertex 0.000000e+000 1.939586e+002 1.000000e+001
      endloop
   endfacet
   facet normal -1.000000e+000 0.000000e+000 0.000000e+000
      outer loop
         vertex 0.000000e+000 1.939586e+002 1.000000e+001
         vertex 0.000000e+000 1.759830e+001 0.000000e+000
         vertex 0.000000e+000 1.395860e+001 1.000000e+001
      endloop
   endfacet
endsolid