solid panneau_dessus_oblique
   facet normal -1.000000e+000 7.336667e-016 0.000000e+000
      outer loop
         vertex 3.313322e-013 4.516113e+002 0.000000e+000
         vertex 0.000000e+000 0.000000e+000 0.000000e+000
         vertex 3.239955e-013 4.416113e+002 1.000000e+001
      endloop
   endfacet
   facet normal -1.000000e+000 7.336667e-016 0.000000e+000
      outer loop
         vertex 3.239955e-013 4.416113e+002 1.000000e+001
         vertex 0.000000e+000 0.000000e+000 0.000000e+000
         vertex 7.336667e-015 1.000000e+001 1.000000e+001
      endloop
   endfacet
   facet normal 1.000000e+000 0.000000e+000 0.000000e+000
      outer loop
         vertex 7.500000e+002 4.416113e+002 1.000000e+001
         vertex 7.500000e+002 1.000000e+001 1.000000e+001
         vertex 7.500000e+002 4.516113e+002 0.000000e+000
      endloop
   endfacet
   facet normal 1.000000e+000 0.000000e+000 0.000000e+000
      outer loop
         vertex 7.500000e+002 4.516113e+002 0.000000e+000
         vertex 7.500000e+002 1.000000e+001 1.000000e+001
         vertex 7.500000e+002 0.000000e+000 0.000000e+000
      endloop
   endfacet
   facet normal 0.000000e+000 0.000000e+000 1.000000e+000
      outer loop
         vertex 3.276639e-013 4.416113e+002 1.000000e+001
         vertex 0.000000e+000 1.000000e+001 1.000000e+001
         vertex 7.500000e+002 4.416113e+002 1.000000e+001
      endloop
   endfacet
   facet normal 0.000000e+000 0.000000e+000 1.000000e+000
      outer loop
         vertex 7.500000e+002 4.416113e+002 1.000000e+001
         vertex 0.000000e+000 1.000000e+001 1.000000e+001
         vertex 7.500000e+002 1.000000e+001 1.000000e+001
      endloop
   endfacet
   facet normal 0.000000e+000 0.000000e+000 -1.000000e+000
      outer loop
         vertex 7.500000e+002 4.516113e+002 0.000000e+000
         vertex 7.500000e+002 0.000000e+000 0.000000e+000
         vertex 0.000000e+000 4.516113e+002 0.000000e+000
      endloop
   endfacet
   facet normal 0.000000e+000 0.000000e+000 -1.000000e+000
      outer loop
         vertex 0.000000e+000 4.516113e+002 0.000000e+000
         vertex 7.500000e+002 0.000000e+000 0.000000e+000
         vertex 0.000000e+000 0.000000e+000 0.000000e+000
      endloop
   endfacet
   facet normal 0.000000e+000 -7.071068e-001 7.071068e-001
      outer loop
         vertex 7.500000e+002 0.000000e+000 0.000000e+000
         vertex 7.500000e+002 1.000000e+001 1.000000e+001
         vertex 0.000000e+000 0.000000e+000 0.000000e+000
      endloop
   endfacet
   facet normal 0.000000e+000 -7.071068e-001 7.071068e-001
      outer loop
         vertex 0.000000e+000 0.000000e+000 0.000000e+000
         vertex 7.500000e+002 1.000000e+001 1.000000e+001
         vertex 0.000000e+000 1.000000e+001 1.000000e+001
      endloop
   endfacet
   facet normal 0.000000e+000 7.071068e-001 7.071068e-001
      outer loop
         vertex 7.500000e+002 4.416113e+002 1.000000e+001
         vertex 7.500000e+002 4.516113e+002 0.000000e+000
         vertex 3.276639e-013 4.416113e+002 1.000000e+001
      endloop
   endfacet
   facet normal 0.000000e+000 7.071068e-001 7.071068e-001
      outer loop
         vertex 3.276639e-013 4.416113e+002 1.000000e+001
         vertex 7.500000e+002 4.516113e+002 0.000000e+000
         vertex 0.000000e+000 4.516113e+002 0.000000e+000
      endloop
   endfacet
endsolid