solid panneau_avant
   facet normal -1.000000e+000 0.000000e+000 0.000000e+000
      outer loop
         vertex 0.000000e+000 5.773503e+000 1.000000e+001
         vertex 0.000000e+000 7.557735e+002 1.000000e+001
         vertex 0.000000e+000 0.000000e+000 0.000000e+000
      endloop
   endfacet
   facet normal -1.000000e+000 0.000000e+000 0.000000e+000
      outer loop
         vertex 0.000000e+000 0.000000e+000 0.000000e+000
         vertex 0.000000e+000 7.557735e+002 1.000000e+001
         vertex 0.000000e+000 7.557735e+002 0.000000e+000
      endloop
   endfacet
   facet normal 1.000000e+000 0.000000e+000 0.000000e+000
      outer loop
         vertex 7.500000e+002 7.557735e+002 1.000000e+001
         vertex 7.500000e+002 5.773503e+000 1.000000e+001
         vertex 7.500000e+002 7.557735e+002 0.000000e+000
      endloop
   endfacet
   facet normal 1.000000e+000 0.000000e+000 0.000000e+000
      outer loop
         vertex 7.500000e+002 7.557735e+002 0.000000e+000
         vertex 7.500000e+002 5.773503e+000 1.000000e+001
         vertex 7.500000e+002 0.000000e+000 0.000000e+000
      endloop
   endfacet
   facet normal 0.000000e+000 1.000000e+000 0.000000e+000
      outer loop
         vertex 0.000000e+000 7.557735e+002 1.000000e+001
         vertex 7.500000e+002 7.557735e+002 1.000000e+001
         vertex 0.000000e+000 7.557735e+002 0.000000e+000
      endloop
   endfacet
   facet normal 0.000000e+000 1.000000e+000 0.000000e+000
      outer loop
         vertex 0.000000e+000 7.557735e+002 0.000000e+000
         vertex 7.500000e+002 7.557735e+002 1.000000e+001
         vertex 7.500000e+002 7.557735e+002 0.000000e+000
      endloop
   endfacet
   facet normal 0.000000e+000 0.000000e+000 1.000000e+000
      outer loop
         vertex 7.500000e+002 5.773503e+000 1.000000e+001
         vertex 7.500000e+002 7.557735e+002 1.000000e+001
         vertex 0.000000e+000 5.773503e+000 1.000000e+001
      endloop
   endfacet
   facet normal 0.000000e+000 0.000000e+000 1.000000e+000
      outer loop
         vertex 0.000000e+000 5.773503e+000 1.000000e+001
         vertex 7.500000e+002 7.557735e+002 1.000000e+001
         vertex 0.000000e+000 7.557735e+002 1.000000e+001
      endloop
   endfacet
   facet normal 0.000000e+000 0.000000e+000 -1.000000e+000
      outer loop
         vertex 7.500000e+002 7.557735e+002 0.000000e+000
         vertex 7.500000e+002 0.000000e+000 0.000000e+000
         vertex 0.000000e+000 7.557735e+002 0.000000e+000
      endloop
   endfacet
   facet normal 0.000000e+000 0.000000e+000 -1.000000e+000
      outer loop
         vertex 0.000000e+000 7.557735e+002 0.000000e+000
         vertex 7.500000e+002 0.000000e+000 0.000000e+000
         vertex 0.000000e+000 0.000000e+000 0.000000e+000
      endloop
   endfacet
   facet normal 0.000000e+000 -8.660254e-001 5.000000e-001
      outer loop
         vertex 0.000000e+000 5.773503e+000 1.000000e+001
         vertex 0.000000e+000 0.000000e+000 7.070502e-016
         vertex 7.500000e+002 5.773503e+000 1.000000e+001
      endloop
   endfacet
   facet normal 0.000000e+000 -8.660254e-001 5.000000e-001
      outer loop
         vertex 7.500000e+002 5.773503e+000 1.000000e+001
         vertex 0.000000e+000 0.000000e+000 7.070502e-016
         vertex 7.500000e+002 0.000000e+000 7.070502e-016
      endloop
   endfacet
endsolid