solid vitre_protection_ecran
   facet normal -1.000000e+000 0.000000e+000 0.000000e+000
      outer loop
         vertex 0.000000e+000 0.000000e+000 4.000000e+000
         vertex 0.000000e+000 5.911085e+002 4.000000e+000
         vertex 0.000000e+000 1.455881e+000 1.010220e-016
      endloop
   endfacet
   facet normal -1.000000e+000 0.000000e+000 0.000000e+000
      outer loop
         vertex 0.000000e+000 1.455881e+000 1.010220e-016
         vertex 0.000000e+000 5.911085e+002 4.000000e+000
         vertex 0.000000e+000 5.904031e+002 1.010220e-016
      endloop
   endfacet
   facet normal 1.000000e+000 0.000000e+000 0.000000e+000
      outer loop
         vertex 7.300000e+002 1.455881e+000 1.010220e-016
         vertex 7.300000e+002 5.904031e+002 1.010220e-016
         vertex 7.300000e+002 0.000000e+000 4.000000e+000
      endloop
   endfacet
   facet normal 1.000000e+000 0.000000e+000 0.000000e+000
      outer loop
         vertex 7.300000e+002 0.000000e+000 4.000000e+000
         vertex 7.300000e+002 5.904031e+002 1.010220e-016
         vertex 7.300000e+002 5.911085e+002 4.000000e+000
      endloop
   endfacet
   facet normal 0.000000e+000 0.000000e+000 1.000000e+000
      outer loop
         vertex 7.300000e+002 0.000000e+000 4.000000e+000
         vertex 7.300000e+002 5.911085e+002 4.000000e+000
         vertex 0.000000e+000 0.000000e+000 4.000000e+000
      endloop
   endfacet
   facet normal 0.000000e+000 0.000000e+000 1.000000e+000
      outer loop
         vertex 0.000000e+000 0.000000e+000 4.000000e+000
         vertex 7.300000e+002 5.911085e+002 4.000000e+000
         vertex 0.000000e+000 5.911085e+002 4.000000e+000
      endloop
   endfacet
   facet normal 0.000000e+000 0.000000e+000 -1.000000e+000
      outer loop
         vertex 0.000000e+000 5.904031e+002 1.010220e-016
         vertex 7.300000e+002 5.904031e+002 1.010220e-016
         vertex 0.000000e+000 1.455881e+000 1.010220e-016
      endloop
   endfacet
   facet normal 0.000000e+000 0.000000e+000 -1.000000e+000
      outer loop
         vertex 0.000000e+000 1.455881e+000 1.010220e-016
         vertex 7.300000e+002 5.904031e+002 1.010220e-016
         vertex 7.300000e+002 1.455881e+000 1.010220e-016
      endloop
   endfacet
   facet normal 0.000000e+000 -9.396927e-001 -3.420202e-001
      outer loop
         vertex 7.300000e+002 1.455881e+000 1.010220e-016
         vertex 7.300000e+002 0.000000e+000 4.000000e+000
         vertex 0.000000e+000 1.455881e+000 1.010220e-016
      endloop
   endfacet
   facet normal 0.000000e+000 -9.396927e-001 -3.420202e-001
      outer loop
         vertex 0.000000e+000 1.455881e+000 1.010220e-016
         vertex 7.300000e+002 0.000000e+000 4.000000e+000
         vertex 0.000000e+000 0.000000e+000 4.000000e+000
      endloop
   endfacet
   facet normal 0.000000e+000 9.848078e-001 -1.736482e-001
      outer loop
         vertex 0.000000e+000 5.904031e+002 -7.663397e-016
         vertex 0.000000e+000 5.911085e+002 4.000000e+000
         vertex 7.300000e+002 5.904031e+002 -7.663397e-016
      endloop
   endfacet
   facet normal 0.000000e+000 9.848078e-001 -1.736482e-001
      outer loop
         vertex 7.300000e+002 5.904031e+002 -7.663397e-016
         vertex 0.000000e+000 5.911085e+002 4.000000e+000
         vertex 7.300000e+002 5.911085e+002 4.000000e+000
      endloop
   endfacet
endsolid